<svg width="496" height="104" viewBox="0 0 496 104" fill="none" xmlns="http://www.w3.org/2000/svg">
<path d="M20.224 78.448C16.9387 78.448 13.9947 77.9147 11.392 76.848C8.78933 75.7813 6.69867 74.2027 5.12 72.112C3.584 70.0213 2.77333 67.504 2.688 64.56H14.336C14.5067 66.224 15.0827 67.504 16.064 68.4C17.0453 69.2533 18.3253 69.68 19.904 69.68C21.5253 69.68 22.8053 69.3173 23.744 68.592C24.6827 67.824 25.152 66.7787 25.152 65.456C25.152 64.3467 24.768 63.4293 24 62.704C23.2747 61.9787 22.3573 61.3813 21.248 60.912C20.1813 60.4427 18.6453 59.9093 16.64 59.312C13.7387 58.416 11.3707 57.52 9.536 56.624C7.70133 55.728 6.12267 54.4053 4.8 52.656C3.47733 50.9067 2.816 48.624 2.816 45.808C2.816 41.6267 4.33067 38.3627 7.36 36.016C10.3893 33.6267 14.336 32.432 19.2 32.432C24.1493 32.432 28.1387 33.6267 31.168 36.016C34.1973 38.3627 35.8187 41.648 36.032 45.872H24.192C24.1067 44.4213 23.5733 43.2907 22.592 42.48C21.6107 41.6267 20.352 41.2 18.816 41.2C17.4933 41.2 16.4267 41.5627 15.616 42.288C14.8053 42.9707 14.4 43.9733 14.4 45.296C14.4 46.7467 15.0827 47.8773 16.448 48.688C17.8133 49.4987 19.9467 50.3733 22.848 51.312C25.7493 52.2933 28.096 53.232 29.888 54.128C31.7227 55.024 33.3013 56.3253 34.624 58.032C35.9467 59.7387 36.608 61.936 36.608 64.624C36.608 67.184 35.9467 69.5093 34.624 71.6C33.344 73.6907 31.4667 75.3547 28.992 76.592C26.5173 77.8293 23.5947 78.448 20.224 78.448ZM63.247 68.72V78H57.679C53.711 78 50.6177 77.04 48.399 75.12C46.1803 73.1573 45.071 69.9787 45.071 65.584V51.376H40.719V42.288H45.071V33.584H56.015V42.288H63.183V51.376H56.015V65.712C56.015 66.7787 56.271 67.5467 56.783 68.016C57.295 68.4853 58.1483 68.72 59.343 68.72H63.247ZM67.167 60.08C67.167 56.4107 67.8497 53.1893 69.215 50.416C70.623 47.6427 72.5217 45.5093 74.911 44.016C77.3003 42.5227 79.967 41.776 82.911 41.776C85.4283 41.776 87.6257 42.288 89.503 43.312C91.423 44.336 92.895 45.68 93.919 47.344V42.288H104.863V78H93.919V72.944C92.8523 74.608 91.359 75.952 89.439 76.976C87.5617 78 85.3643 78.512 82.847 78.512C79.9457 78.512 77.3003 77.7653 74.911 76.272C72.5217 74.736 70.623 72.5813 69.215 69.808C67.8497 66.992 67.167 63.7493 67.167 60.08ZM93.919 60.144C93.919 57.4133 93.151 55.2587 91.615 53.68C90.1217 52.1013 88.287 51.312 86.111 51.312C83.935 51.312 82.079 52.1013 80.543 53.68C79.0497 55.216 78.303 57.3493 78.303 60.08C78.303 62.8107 79.0497 64.9867 80.543 66.608C82.079 68.1867 83.935 68.976 86.111 68.976C88.287 68.976 90.1217 68.1867 91.615 66.608C93.151 65.0293 93.919 62.8747 93.919 60.144ZM110.605 60.144C110.605 56.432 111.351 53.1893 112.845 50.416C114.381 47.6427 116.493 45.5093 119.181 44.016C121.911 42.5227 125.026 41.776 128.525 41.776C133.005 41.776 136.738 42.9493 139.725 45.296C142.754 47.6427 144.738 50.9493 145.677 55.216H134.029C133.047 52.4853 131.149 51.12 128.333 51.12C126.327 51.12 124.727 51.9093 123.533 53.488C122.338 55.024 121.741 57.2427 121.741 60.144C121.741 63.0453 122.338 65.2853 123.533 66.864C124.727 68.4 126.327 69.168 128.333 69.168C131.149 69.168 133.047 67.8027 134.029 65.072H145.677C144.738 69.2533 142.754 72.5387 139.725 74.928C136.695 77.3173 132.962 78.512 128.525 78.512C125.026 78.512 121.911 77.7653 119.181 76.272C116.493 74.7787 114.381 72.6453 112.845 69.872C111.351 67.0987 110.605 63.856 110.605 60.144ZM173.355 78L162.475 63.024V78H151.531V30.64H162.475V56.816L173.291 42.288H186.795L171.947 60.208L186.923 78H173.355ZM220.661 33.52V39.472H208.821V78H201.525V39.472H189.621V33.52H220.661ZM235.346 47.856C236.413 46.064 237.821 44.6773 239.57 43.696C241.362 42.672 243.474 42.16 245.906 42.16V49.712H244.05C241.191 49.712 239.015 50.4373 237.522 51.888C236.071 53.3387 235.346 55.856 235.346 59.44V78H228.05V42.736H235.346V47.856ZM250.181 60.208C250.181 56.6667 250.906 53.5307 252.357 50.8C253.85 48.0693 255.855 45.9573 258.373 44.464C260.933 42.928 263.749 42.16 266.821 42.16C269.594 42.16 272.005 42.7147 274.053 43.824C276.143 44.8907 277.807 46.2347 279.045 47.856V42.736H286.405V78H279.045V72.752C277.807 74.416 276.122 75.8027 273.989 76.912C271.855 78.0213 269.423 78.576 266.693 78.576C263.663 78.576 260.89 77.808 258.373 76.272C255.855 74.6933 253.85 72.5173 252.357 69.744C250.906 66.928 250.181 63.7493 250.181 60.208ZM279.045 60.336C279.045 57.904 278.533 55.792 277.509 54C276.527 52.208 275.226 50.8427 273.605 49.904C271.983 48.9653 270.234 48.496 268.357 48.496C266.479 48.496 264.73 48.9653 263.109 49.904C261.487 50.8 260.165 52.144 259.141 53.936C258.159 55.6853 257.669 57.776 257.669 60.208C257.669 62.64 258.159 64.7733 259.141 66.608C260.165 68.4427 261.487 69.8507 263.109 70.832C264.773 71.7707 266.522 72.24 268.357 72.24C270.234 72.24 271.983 71.7707 273.605 70.832C275.226 69.8933 276.527 68.528 277.509 66.736C278.533 64.9013 279.045 62.768 279.045 60.336ZM293.556 60.336C293.556 56.7093 294.281 53.5307 295.732 50.8C297.225 48.0267 299.273 45.8933 301.876 44.4C304.478 42.9067 307.465 42.16 310.836 42.16C315.102 42.16 318.622 43.184 321.396 45.232C324.212 47.2373 326.11 50.1173 327.092 53.872H319.22C318.58 52.1227 317.556 50.7573 316.148 49.776C314.74 48.7947 312.969 48.304 310.836 48.304C307.849 48.304 305.46 49.3707 303.668 51.504C301.918 53.5947 301.044 56.5387 301.044 60.336C301.044 64.1333 301.918 67.0987 303.668 69.232C305.46 71.3653 307.849 72.432 310.836 72.432C315.06 72.432 317.854 70.576 319.22 66.864H327.092C326.068 70.448 324.148 73.3067 321.332 75.44C318.516 77.5307 315.017 78.576 310.836 78.576C307.465 78.576 304.478 77.8293 301.876 76.336C299.273 74.8 297.225 72.6667 295.732 69.936C294.281 67.1627 293.556 63.9627 293.556 60.336ZM366.683 59.504C366.683 60.8267 366.597 62.0213 366.427 63.088H339.483C339.696 65.904 340.741 68.1653 342.619 69.872C344.496 71.5787 346.8 72.432 349.531 72.432C353.456 72.432 356.229 70.7893 357.851 67.504H365.722C364.656 70.7467 362.715 73.4133 359.899 75.504C357.125 77.552 353.669 78.576 349.531 78.576C346.16 78.576 343.131 77.8293 340.443 76.336C337.797 74.8 335.707 72.6667 334.171 69.936C332.677 67.1627 331.931 63.9627 331.931 60.336C331.931 56.7093 332.656 53.5307 334.107 50.8C335.6 48.0267 337.669 45.8933 340.315 44.4C343.003 42.9067 346.075 42.16 349.531 42.16C352.859 42.16 355.824 42.8853 358.427 44.336C361.029 45.7867 363.056 47.8347 364.507 50.48C365.957 53.0827 366.683 56.0907 366.683 59.504ZM359.067 57.2C359.024 54.512 358.064 52.3573 356.187 50.736C354.309 49.1147 351.984 48.304 349.211 48.304C346.693 48.304 344.539 49.1147 342.747 50.736C340.955 52.3147 339.888 54.4693 339.547 57.2H359.067Z" fill="#334155"/>
<rect x="389" y="43" width="62" height="14" rx="7" fill="url(#paint0_linear_7247_1594)"/>
<rect x="389" y="64" width="62" height="14" rx="7" fill="url(#paint1_linear_7247_1594)"/>
<g filter="url(#filter0_d_7247_1594)">
<path fill-rule="evenodd" clip-rule="evenodd" d="M470 16C470 12.6863 467.314 10 464 10C460.686 10 458 12.6863 458 16L458 24H450C446.686 24 444 26.6863 444 30C444 33.3137 446.686 36 450 36H458L458 44C458 47.3137 460.686 50 464 50C467.314 50 470 47.3137 470 44V36H478C481.314 36 484 33.3137 484 30C484 26.6863 481.314 24 478 24H470V16Z" fill="url(#paint2_linear_7247_1594)"/>
</g>
<defs>
<filter id="filter0_d_7247_1594" x="432" y="0" width="64" height="64" filterUnits="userSpaceOnUse" color-interpolation-filters="sRGB">
<feFlood flood-opacity="0" result="BackgroundImageFix"/>
<feColorMatrix in="SourceAlpha" type="matrix" values="0 0 0 0 0 0 0 0 0 0 0 0 0 0 0 0 0 0 127 0" result="hardAlpha"/>
<feOffset dy="2"/>
<feGaussianBlur stdDeviation="6"/>
<feColorMatrix type="matrix" values="0 0 0 0 0 0 0 0 0 0 0 0 0 0 0 0 0 0 0.04 0"/>
<feBlend mode="normal" in2="BackgroundImageFix" result="effect1_dropShadow_7247_1594"/>
<feBlend mode="normal" in="SourceGraphic" in2="effect1_dropShadow_7247_1594" result="shape"/>
</filter>
<linearGradient id="paint0_linear_7247_1594" x1="389" y1="50" x2="450.646" y2="45.3276" gradientUnits="userSpaceOnUse">
<stop stop-color="#F72786"/>
<stop offset="1" stop-color="#E2086C"/>
</linearGradient>
<linearGradient id="paint1_linear_7247_1594" x1="390.771" y1="71" x2="450.656" y2="75.5389" gradientUnits="userSpaceOnUse">
<stop stop-color="#13ADDD"/>
<stop offset="1" stop-color="#119BC6"/>
</linearGradient>
<linearGradient id="paint2_linear_7247_1594" x1="445" y1="30" x2="484" y2="30" gradientUnits="userSpaceOnUse">
<stop stop-color="#4361EE"/>
<stop offset="1" stop-color="#284AEC"/>
</linearGradient>
</defs>
</svg>
